# xmcd
#
# Track frame offsets:
#  150
#  15480
#  30140
#  48568
#  63110
#
# Disc length: 1056 seconds
#
# Revision: 0
# Processed by: cddbd v1.5.2PL0 Copyright (c) Steve Scherf et al.
# Submitted via: AltoMP3_Maker 3.0
#
DISCID=2d041e05
DTITLE=Wally Nichols - Country Sampler 1
DYEAR=1900
DGENRE=
TTITLE0=Diesel Blood and Gasoline
TTITLE1=Pickup Truck
TTITLE2=Red Shoes
TTITLE3=Wakey Time
TTITLE4=One Bad Lie
EXTD=
EXTT0=
EXTT1=
EXTT2=
EXTT3=
EXTT4=
PLAYORDER=
